<?xml version="1.0" encoding="UTF-8" standalone="yes"?><svg xmlns="http://www.w3.org/2000/svg" xmlns:xlink="http://www.w3.org/1999/xlink" height="475px" style="width:499px;height:475px;" version="1.1" viewBox="0 0 499 475" width="499px"><defs><filter height="300%" id="f1" width="300%" x="-1" y="-1"><feGaussianBlur result="blurOut" stdDeviation="2.0"/><feColorMatrix in="blurOut" result="blurOut2" type="matrix" values="0 0 0 0 0 0 0 0 0 0 0 0 0 0 0 0 0 0 .4 0"/><feOffset dx="4.0" dy="4.0" in="blurOut2" result="blurOut3"/><feBlend in="SourceGraphic" in2="blurOut3" mode="normal"/></filter></defs><g><rect fill="#FFFFFF" filter="url(#f1)" height="87" style="stroke: #000000; stroke-width: 2.0;" width="358" x="22" y="122"/><text fill="#000000" font-family="sans-serif" font-size="14" font-weight="bold" lengthAdjust="spacingAndGlyphs" textLength="135" x="133.5" y="136.9951">Python Interpreter</text><rect fill="#FEFECE" filter="url(#f1)" height="36.2969" style="stroke: #000000; stroke-width: 1.5;" width="93" x="271.5" y="157"/><text fill="#000000" font-family="sans-serif" font-size="14" lengthAdjust="spacingAndGlyphs" textLength="73" x="281.5" y="179.9951">&lt;your_app&gt;</text><rect fill="#FEFECE" filter="url(#f1)" height="36.2969" style="stroke: #000000; stroke-width: 1.5;" width="32" x="170" y="157"/><text fill="#000000" font-family="sans-serif" font-size="14" lengthAdjust="spacingAndGlyphs" textLength="12" x="180" y="179.9951">rv</text><rect fill="#FEFECE" filter="url(#f1)" height="36.2969" style="stroke: #000000; stroke-width: 1.5;" width="62" x="38" y="157"/><text fill="#000000" font-family="sans-serif" font-size="14" lengthAdjust="spacingAndGlyphs" textLength="42" x="48" y="179.9951">ctypes</text><rect fill="#FEFECE" filter="url(#f1)" height="36.2969" style="stroke: #000000; stroke-width: 1.5;" width="94" x="22" y="295.5"/><text fill="#000000" font-family="sans-serif" font-size="14" lengthAdjust="spacingAndGlyphs" textLength="74" x="32" y="318.4951">SunVox DLL</text><rect fill="#FEFECE" filter="url(#f1)" height="36.2969" style="stroke: #000000; stroke-width: 1.5;" width="90" x="24" y="432"/><text fill="#000000" font-family="sans-serif" font-size="14" lengthAdjust="spacingAndGlyphs" textLength="70" x="34" y="454.9951">SunVox file</text><rect fill="#FEFECE" filter="url(#f1)" height="36.2969" style="stroke: #000000; stroke-width: 1.5;" width="90" x="273" y="8"/><text fill="#000000" font-family="sans-serif" font-size="14" lengthAdjust="spacingAndGlyphs" textLength="70" x="283" y="30.9951">SunVox file</text><rect fill="#FEFECE" filter="url(#f1)" height="52.5938" style="stroke: #000000; stroke-width: 1.5;" width="86" x="265" y="287"/><text fill="#000000" font-family="sans-serif" font-size="14" lengthAdjust="spacingAndGlyphs" textLength="62" x="277" y="309.9951">Audio out</text><text fill="#000000" font-family="sans-serif" font-size="14" lengthAdjust="spacingAndGlyphs" textLength="66" x="275" y="326.292">(hardware)</text><rect fill="#FEFECE" filter="url(#f1)" height="52.5938" style="stroke: #000000; stroke-width: 1.5;" width="105" x="387.5" y="287"/><text fill="#000000" font-family="sans-serif" font-size="14" lengthAdjust="spacingAndGlyphs" textLength="62" x="409" y="309.9951">Audio out</text><text fill="#000000" font-family="sans-serif" font-size="14" lengthAdjust="spacingAndGlyphs" textLength="85" x="397.5" y="326.292">(byte stream)</text><path d="M318,44.15 C318,70.816 318,122.212 318,151.715 " fill="none" style="stroke: #A80036; stroke-width: 1.0;"/><polygon fill="#A80036" points="318,156.959,322,147.959,318,151.959,314,147.959,318,156.959" style="stroke: #A80036; stroke-width: 1.0;"/><text fill="#000000" font-family="sans-serif" font-size="13" lengthAdjust="spacingAndGlyphs" textLength="109" x="319" y="87.0669">files can be loaded</text><text fill="#000000" font-family="sans-serif" font-size="13" lengthAdjust="spacingAndGlyphs" textLength="102" x="322.5" y="102.1997">using byte strings</text><path d="M207.377,175 C227.059,175 246.74,175 266.422,175 " fill="none" style="stroke: #A80036; stroke-width: 1.0;"/><polygon fill="#A80036" points="271.426,175,262.426,171,266.426,175,262.426,179,271.426,175" style="stroke: #A80036; stroke-width: 1.0;"/><polygon fill="#A80036" points="202.242,175,211.242,179,207.242,175,211.242,171,202.242,175" style="stroke: #A80036; stroke-width: 1.0;"/><path d="M105.2594,175 C125.12,175 144.98,175 164.84,175 " fill="none" style="stroke: #A80036; stroke-width: 1.0;"/><polygon fill="#A80036" points="169.89,175,160.89,171,164.89,175,160.89,179,169.89,175" style="stroke: #A80036; stroke-width: 1.0;"/><polygon fill="#A80036" points="100.0781,175,109.0781,179,105.0781,175,109.0781,171,100.0781,175" style="stroke: #A80036; stroke-width: 1.0;"/><path d="M69,198.182 C69,223.503 69,264.691 69,290.102 " fill="none" style="stroke: #A80036; stroke-width: 1.0;"/><polygon fill="#A80036" points="69,295.274,73,286.274,69,290.274,65,286.274,69,295.274" style="stroke: #A80036; stroke-width: 1.0;"/><polygon fill="#A80036" points="69,193.012,65,202.012,69,198.012,73,202.012,69,193.012" style="stroke: #A80036; stroke-width: 1.0;"/><path d="M69,336.615 C69,363.241 69,407.3993 69,431.679 " fill="none" style="stroke: #A80036; stroke-width: 1.0;"/><polygon fill="#A80036" points="69,331.535,65,340.535,69,336.535,73,340.535,69,331.535" style="stroke: #A80036; stroke-width: 1.0;"/><text fill="#000000" font-family="sans-serif" font-size="13" lengthAdjust="spacingAndGlyphs" textLength="65" x="80.5" y="383.0669">files can be</text><text fill="#000000" font-family="sans-serif" font-size="13" lengthAdjust="spacingAndGlyphs" textLength="86" x="70" y="398.1997">loaded directly</text><path d="M116.219,313.5 C157.789,313.5 218.053,313.5 259.888,313.5 " fill="none" style="stroke: #A80036; stroke-width: 1.0;"/><polygon fill="#A80036" points="264.896,313.5,255.896,309.5,259.896,313.5,255.896,317.5,264.896,313.5" style="stroke: #A80036; stroke-width: 1.0;"/><text fill="#000000" font-family="sans-serif" font-size="13" lengthAdjust="spacingAndGlyphs" textLength="112" x="134.5" y="291.5669">SunVox can output</text><text fill="#000000" font-family="sans-serif" font-size="13" lengthAdjust="spacingAndGlyphs" textLength="79" x="151" y="306.6997">audio directly</text><path d="M312.321,193.016 C309.505,202.344 306.411,214.178 305,225 C302.56,243.713 303.192,264.856 304.491,281.67 " fill="none" style="stroke: #A80036; stroke-width: 1.0;"/><polygon fill="#A80036" points="304.913,286.742,308.1535,277.4415,304.4987,281.7592,300.181,278.1044,304.913,286.742" style="stroke: #A80036; stroke-width: 1.0;"/><text fill="#000000" font-family="sans-serif" font-size="13" lengthAdjust="spacingAndGlyphs" textLength="104" x="307.5" y="238.0669">Audio can also be</text><text fill="#000000" font-family="sans-serif" font-size="13" lengthAdjust="spacingAndGlyphs" textLength="107" x="306" y="253.1997">read from a buffer</text><path d="M364.647,189.199 C383.714,196.794 404.433,208.248 418,225 C430.976,241.022 436.425,263.7 438.656,281.953 " fill="none" style="stroke: #A80036; stroke-width: 1.0;"/><polygon fill="#A80036" points="439.203,286.975,442.2021,277.5939,438.6601,282.0046,434.2494,278.4625,439.203,286.975" style="stroke: #A80036; stroke-width: 1.0;"/></g></svg>