<?xml version="1.0" encoding="UTF-8" standalone="yes"?><svg xmlns="http://www.w3.org/2000/svg" xmlns:xlink="http://www.w3.org/1999/xlink" height="370px" style="width:186px;height:370px;" version="1.1" viewBox="0 0 186 370" width="186px"><defs><filter height="300%" id="f1" width="300%" x="-1" y="-1"><feGaussianBlur result="blurOut" stdDeviation="2.0"/><feColorMatrix in="blurOut" result="blurOut2" type="matrix" values="0 0 0 0 0 0 0 0 0 0 0 0 0 0 0 0 0 0 .4 0"/><feOffset dx="4.0" dy="4.0" in="blurOut2" result="blurOut3"/><feBlend in="SourceGraphic" in2="blurOut3" mode="normal"/></filter></defs><g><rect fill="#FFFFFF" filter="url(#f1)" height="243" style="stroke: #000000; stroke-width: 2.0;" width="157" x="22" y="24"/><text fill="#000000" font-family="sans-serif" font-size="14" font-weight="bold" lengthAdjust="spacingAndGlyphs" textLength="135" x="33" y="38.9951">Python Interpreter</text><rect fill="#FFFFFF" filter="url(#f1)" height="104" style="stroke: #000000; stroke-width: 2.0;" width="108" x="47" y="67"/><text fill="#000000" font-family="sans-serif" font-size="14" font-weight="bold" lengthAdjust="spacingAndGlyphs" textLength="80" x="61" y="81.9951">&lt;your_app&gt;</text><rect fill="#FEFECE" filter="url(#f1)" height="36.2969" style="stroke: #000000; stroke-width: 1.5;" width="32" x="131" y="215"/><text fill="#000000" font-family="sans-serif" font-size="14" lengthAdjust="spacingAndGlyphs" textLength="12" x="141" y="237.9951">rv</text><rect fill="#FEFECE" filter="url(#f1)" height="36.2969" style="stroke: #000000; stroke-width: 1.5;" width="58" x="38" y="215"/><text fill="#000000" font-family="sans-serif" font-size="14" lengthAdjust="spacingAndGlyphs" textLength="38" x="48" y="237.9951">chunk</text><rect fill="#FEFECE" filter="url(#f1)" height="52.5938" style="stroke: #000000; stroke-width: 1.5;" width="76" x="63" y="102"/><text fill="#000000" font-family="sans-serif" font-size="14" lengthAdjust="spacingAndGlyphs" textLength="56" x="73" y="124.9951">rv object</text><text fill="#000000" font-family="sans-serif" font-size="14" lengthAdjust="spacingAndGlyphs" textLength="41" x="80.5" y="141.292">model</text><rect fill="#FEFECE" filter="url(#f1)" height="52.5938" style="stroke: #000000; stroke-width: 1.5;" width="90" x="62" y="311"/><text fill="#000000" font-family="sans-serif" font-size="14" lengthAdjust="spacingAndGlyphs" textLength="70" x="72" y="333.9951">SunVox file</text><text fill="#000000" font-family="sans-serif" font-size="14" lengthAdjust="spacingAndGlyphs" textLength="54" x="80" y="350.292">or buffer</text><path d="M97.0248,310.9385 C90.4565,294.1073 81.9426,272.2903 75.6592,256.189 " fill="none" style="stroke: #A80036; stroke-width: 1.0;"/><polygon fill="#A80036" points="73.7855,251.388,73.3327,261.2264,75.604,256.0456,80.7848,258.3169,73.7855,251.388" style="stroke: #A80036; stroke-width: 1.0;"/><path d="M96.0625,233 C105.89,233 115.717,233 125.545,233 " fill="none" style="stroke: #A80036; stroke-width: 1.0;"/><polygon fill="#A80036" points="130.684,233,121.684,229,125.684,233,121.684,237,130.684,233" style="stroke: #A80036; stroke-width: 1.0;"/><path d="M114.7,160.027 C121.908,176.088 130.582,195.416 137.125,209.996 " fill="none" style="stroke: #A80036; stroke-width: 1.0;"/><polygon fill="#A80036" points="139.257,214.747,139.2224,204.8982,137.2103,210.1851,131.9234,208.1729,139.257,214.747" style="stroke: #A80036; stroke-width: 1.0;"/><polygon fill="#A80036" points="112.489,155.101,112.5247,164.9498,114.5362,159.6627,119.8234,161.6742,112.489,155.101" style="stroke: #A80036; stroke-width: 1.0;"/><path d="M140.215,251.388 C134.388,266.3193 125.852,288.1919 118.893,306.0249 " fill="none" style="stroke: #A80036; stroke-width: 1.0;"/><polygon fill="#A80036" points="116.975,310.9385,123.9736,304.0089,118.793,306.2807,116.5211,301.1001,116.975,310.9385" style="stroke: #A80036; stroke-width: 1.0;"/></g></svg>