<?xml version="1.0" encoding="UTF-8" standalone="yes"?><svg xmlns="http://www.w3.org/2000/svg" xmlns:xlink="http://www.w3.org/1999/xlink" height="274px" style="width:283px;height:274px;" version="1.1" viewBox="0 0 283 274" width="283px"><defs><filter height="300%" id="f1" width="300%" x="-1" y="-1"><feGaussianBlur result="blurOut" stdDeviation="2.0"/><feColorMatrix in="blurOut" result="blurOut2" type="matrix" values="0 0 0 0 0 0 0 0 0 0 0 0 0 0 0 0 0 0 .4 0"/><feOffset dx="4.0" dy="4.0" in="blurOut2" result="blurOut3"/><feBlend in="SourceGraphic" in2="blurOut3" mode="normal"/></filter></defs><g><rect fill="#FFFFFF" filter="url(#f1)" height="243" style="stroke: #000000; stroke-width: 2.0;" width="164" x="112" y="24"/><text fill="#000000" font-family="sans-serif" font-size="14" font-weight="bold" lengthAdjust="spacingAndGlyphs" textLength="135" x="126.5" y="38.9951">Python Interpreter</text><rect fill="#FFFFFF" filter="url(#f1)" height="104" style="stroke: #000000; stroke-width: 2.0;" width="116" x="136" y="67"/><text fill="#000000" font-family="sans-serif" font-size="14" font-weight="bold" lengthAdjust="spacingAndGlyphs" textLength="80" x="154" y="81.9951">&lt;your_app&gt;</text><rect fill="#FEFECE" filter="url(#f1)" height="36.2969" style="stroke: #000000; stroke-width: 1.5;" width="32" x="221" y="215"/><text fill="#000000" font-family="sans-serif" font-size="14" lengthAdjust="spacingAndGlyphs" textLength="12" x="231" y="237.9951">rv</text><rect fill="#FEFECE" filter="url(#f1)" height="36.2969" style="stroke: #000000; stroke-width: 1.5;" width="58" x="128" y="215"/><text fill="#000000" font-family="sans-serif" font-size="14" lengthAdjust="spacingAndGlyphs" textLength="38" x="138" y="237.9951">chunk</text><rect fill="#FEFECE" filter="url(#f1)" height="52.5938" style="stroke: #000000; stroke-width: 1.5;" width="84" x="152" y="102"/><text fill="#000000" font-family="sans-serif" font-size="14" lengthAdjust="spacingAndGlyphs" textLength="64" x="162" y="124.9951">file object</text><text fill="#000000" font-family="sans-serif" font-size="14" lengthAdjust="spacingAndGlyphs" textLength="41" x="173.5" y="141.292">model</text><rect fill="#FEFECE" filter="url(#f1)" height="36.2969" style="stroke: #000000; stroke-width: 1.5;" width="90" x="6" y="110.5"/><text fill="#000000" font-family="sans-serif" font-size="14" lengthAdjust="spacingAndGlyphs" textLength="70" x="16" y="133.4951">SunVox file</text><path d="M72.7884,150.569 C91.0624,168.24 117.027,193.3467 135.281,210.9984 " fill="none" style="stroke: #A80036; stroke-width: 1.0;"/><polygon fill="#A80036" points="139.284,214.8691,135.5946,205.7374,135.6896,211.3934,130.0336,211.4884,139.284,214.8691" style="stroke: #A80036; stroke-width: 1.0;"/><polygon fill="#A80036" points="68.9815,146.888,72.6707,156.0198,72.5758,150.3638,78.2319,150.2689,68.9815,146.888" style="stroke: #A80036; stroke-width: 1.0;"/><path d="M191.202,233 C199.34,233 207.478,233 215.617,233 " fill="none" style="stroke: #A80036; stroke-width: 1.0;"/><polygon fill="#A80036" points="220.684,233,211.684,229,215.684,233,211.684,237,220.684,233" style="stroke: #A80036; stroke-width: 1.0;"/><polygon fill="#A80036" points="186.062,233,195.062,237,191.062,233,195.062,229,186.062,233" style="stroke: #A80036; stroke-width: 1.0;"/><path d="M206.806,160.027 C213.544,176.088 221.652,195.4156 227.769,209.9961 " fill="none" style="stroke: #A80036; stroke-width: 1.0;"/><polygon fill="#A80036" points="229.762,214.7472,229.9691,204.9005,227.8279,210.1364,222.5919,207.9952,229.762,214.7472" style="stroke: #A80036; stroke-width: 1.0;"/><polygon fill="#A80036" points="204.74,155.101,204.5326,164.9477,206.674,159.7118,211.9099,161.8532,204.74,155.101" style="stroke: #A80036; stroke-width: 1.0;"/></g></svg>