<?xml version="1.0" encoding="UTF-8" standalone="yes"?><svg xmlns="http://www.w3.org/2000/svg" xmlns:xlink="http://www.w3.org/1999/xlink" height="492px" style="width:503px;height:492px;" version="1.1" viewBox="0 0 503 492" width="503px"><defs><filter height="300%" id="f1" width="300%" x="-1" y="-1"><feGaussianBlur result="blurOut" stdDeviation="2.0"/><feColorMatrix in="blurOut" result="blurOut2" type="matrix" values="0 0 0 0 0 0 0 0 0 0 0 0 0 0 0 0 0 0 .4 0"/><feOffset dx="4.0" dy="4.0" in="blurOut2" result="blurOut3"/><feBlend in="SourceGraphic" in2="blurOut3" mode="normal"/></filter></defs><g><rect fill="#FFFFFF" filter="url(#f1)" height="104" style="stroke: #000000; stroke-width: 2.0;" width="403" x="22" y="122"/><text fill="#000000" font-family="sans-serif" font-size="14" font-weight="bold" lengthAdjust="spacingAndGlyphs" textLength="135" x="156" y="136.9951">Python Interpreter</text><rect fill="#FEFECE" filter="url(#f1)" height="36.2969" style="stroke: #000000; stroke-width: 1.5;" width="93" x="316.5" y="165.5"/><text fill="#000000" font-family="sans-serif" font-size="14" lengthAdjust="spacingAndGlyphs" textLength="73" x="326.5" y="188.4951">&lt;your_app&gt;</text><rect fill="#FEFECE" filter="url(#f1)" height="52.5938" style="stroke: #000000; stroke-width: 1.5;" width="69" x="177.5" y="157"/><text fill="#000000" font-family="sans-serif" font-size="14" lengthAdjust="spacingAndGlyphs" textLength="45" x="189.5" y="179.9951">sunvox</text><text fill="#000000" font-family="sans-serif" font-size="14" lengthAdjust="spacingAndGlyphs" textLength="49" x="187.5" y="196.292">module</text><rect fill="#FEFECE" filter="url(#f1)" height="52.5938" style="stroke: #000000; stroke-width: 1.5;" width="69" x="38.5" y="157"/><text fill="#000000" font-family="sans-serif" font-size="14" lengthAdjust="spacingAndGlyphs" textLength="42" x="52" y="179.9951">ctypes</text><text fill="#000000" font-family="sans-serif" font-size="14" lengthAdjust="spacingAndGlyphs" textLength="49" x="48.5" y="196.292">module</text><rect fill="#FEFECE" filter="url(#f1)" height="36.2969" style="stroke: #000000; stroke-width: 1.5;" width="94" x="26" y="312.5"/><text fill="#000000" font-family="sans-serif" font-size="14" lengthAdjust="spacingAndGlyphs" textLength="74" x="36" y="335.4951">SunVox DLL</text><rect fill="#FEFECE" filter="url(#f1)" height="36.2969" style="stroke: #000000; stroke-width: 1.5;" width="90" x="28" y="449"/><text fill="#000000" font-family="sans-serif" font-size="14" lengthAdjust="spacingAndGlyphs" textLength="70" x="38" y="471.9951">SunVox file</text><rect fill="#FEFECE" filter="url(#f1)" height="36.2969" style="stroke: #000000; stroke-width: 1.5;" width="90" x="318" y="8"/><text fill="#000000" font-family="sans-serif" font-size="14" lengthAdjust="spacingAndGlyphs" textLength="70" x="328" y="30.9951">SunVox file</text><rect fill="#FEFECE" filter="url(#f1)" height="52.5938" style="stroke: #000000; stroke-width: 1.5;" width="86" x="269" y="304"/><text fill="#000000" font-family="sans-serif" font-size="14" lengthAdjust="spacingAndGlyphs" textLength="62" x="281" y="326.9951">Audio out</text><text fill="#000000" font-family="sans-serif" font-size="14" lengthAdjust="spacingAndGlyphs" textLength="66" x="279" y="343.292">(hardware)</text><rect fill="#FEFECE" filter="url(#f1)" height="52.5938" style="stroke: #000000; stroke-width: 1.5;" width="105" x="391.5" y="304"/><text fill="#000000" font-family="sans-serif" font-size="14" lengthAdjust="spacingAndGlyphs" textLength="62" x="413" y="326.9951">Audio out</text><text fill="#000000" font-family="sans-serif" font-size="14" lengthAdjust="spacingAndGlyphs" textLength="85" x="401.5" y="343.292">(byte stream)</text><path d="M363,44.235 C363,72.491 363,128.652 363,160.005 " fill="none" style="stroke: #A80036; stroke-width: 1.0;"/><polygon fill="#A80036" points="363,165.187,367,156.187,363,160.187,359,156.187,363,165.187" style="stroke: #A80036; stroke-width: 1.0;"/><text fill="#000000" font-family="sans-serif" font-size="13" lengthAdjust="spacingAndGlyphs" textLength="109" x="364" y="87.0669">files can be loaded</text><text fill="#000000" font-family="sans-serif" font-size="13" lengthAdjust="spacingAndGlyphs" textLength="102" x="367.5" y="102.1997">using byte strings</text><path d="M251.673,183.5 C271.48,183.5 291.287,183.5 311.094,183.5 " fill="none" style="stroke: #A80036; stroke-width: 1.0;"/><polygon fill="#A80036" points="316.129,183.5,307.129,179.5,311.129,183.5,307.129,187.5,316.129,183.5" style="stroke: #A80036; stroke-width: 1.0;"/><polygon fill="#A80036" points="246.506,183.5,255.506,187.5,251.506,183.5,255.506,179.5,246.506,183.5" style="stroke: #A80036; stroke-width: 1.0;"/><path d="M112.918,183.5 C132.729,183.5 152.539,183.5 172.349,183.5 " fill="none" style="stroke: #A80036; stroke-width: 1.0;"/><polygon fill="#A80036" points="177.386,183.5,168.386,179.5,172.386,183.5,168.386,187.5,177.386,183.5" style="stroke: #A80036; stroke-width: 1.0;"/><polygon fill="#A80036" points="107.75,183.5,116.75,187.5,112.75,183.5,116.75,179.5,107.75,183.5" style="stroke: #A80036; stroke-width: 1.0;"/><path d="M73,215.441 C73,242.932 73,282.462 73,307.03 " fill="none" style="stroke: #A80036; stroke-width: 1.0;"/><polygon fill="#A80036" points="73,312.336,77,303.336,73,307.336,69,303.336,73,312.336" style="stroke: #A80036; stroke-width: 1.0;"/><polygon fill="#A80036" points="73,210.089,69,219.089,73,215.089,77,219.089,73,210.089" style="stroke: #A80036; stroke-width: 1.0;"/><path d="M73,353.615 C73,380.241 73,424.3993 73,448.679 " fill="none" style="stroke: #A80036; stroke-width: 1.0;"/><polygon fill="#A80036" points="73,348.535,69,357.535,73,353.535,77,357.535,73,348.535" style="stroke: #A80036; stroke-width: 1.0;"/><text fill="#000000" font-family="sans-serif" font-size="13" lengthAdjust="spacingAndGlyphs" textLength="65" x="84.5" y="400.0669">files can be</text><text fill="#000000" font-family="sans-serif" font-size="13" lengthAdjust="spacingAndGlyphs" textLength="86" x="74" y="415.1997">loaded directly</text><path d="M120.219,330.5 C161.789,330.5 222.053,330.5 263.888,330.5 " fill="none" style="stroke: #A80036; stroke-width: 1.0;"/><polygon fill="#A80036" points="268.896,330.5,259.896,326.5,263.896,330.5,259.896,334.5,268.896,330.5" style="stroke: #A80036; stroke-width: 1.0;"/><text fill="#000000" font-family="sans-serif" font-size="13" lengthAdjust="spacingAndGlyphs" textLength="112" x="138.5" y="308.5669">SunVox can output</text><text fill="#000000" font-family="sans-serif" font-size="13" lengthAdjust="spacingAndGlyphs" textLength="79" x="155" y="323.6997">audio directly</text><path d="M340.282,201.512 C328.533,211.777 315.352,225.957 309,242 C301.951,259.802 302.566,281.271 305.009,298.488 " fill="none" style="stroke: #A80036; stroke-width: 1.0;"/><polygon fill="#A80036" points="305.819,303.685,308.3829,294.1757,305.0478,298.7448,300.4787,295.4097,305.819,303.685" style="stroke: #A80036; stroke-width: 1.0;"/><text fill="#000000" font-family="sans-serif" font-size="13" lengthAdjust="spacingAndGlyphs" textLength="104" x="311.5" y="255.0669">Audio can also be</text><text fill="#000000" font-family="sans-serif" font-size="13" lengthAdjust="spacingAndGlyphs" textLength="107" x="310" y="270.1997">read from a buffer</text><path d="M385.943,201.595 C398.347,211.983 412.938,226.257 422,242 C431.985,259.347 437.483,281.177 440.486,298.692 " fill="none" style="stroke: #A80036; stroke-width: 1.0;"/><polygon fill="#A80036" points="441.34,303.98,443.8543,294.4575,440.543,299.0439,435.9566,295.7326,441.34,303.98" style="stroke: #A80036; stroke-width: 1.0;"/></g></svg>